<?xml version="1.0" encoding="utf-8"?>
<svg version="1.1" id="Layer_1" x="0px" y="0px" width="100%" viewBox="0 0 1114 1114" enable-background="new 0 0 1114 1114" xmlns="http://www.w3.org/2000/svg">
  <path opacity="1.000000" stroke="none" d=" M1115.000000,424.000000 C1115.000000,654.640869 1115.000000,884.781738 1115.000000,1114.961304 C743.734131,1114.961304 372.468201,1114.961304 1.101157,1114.961304 C1.101157,743.775757 1.101157,372.551483 1.101157,1.163606 C372.333282,1.163606 743.666626,1.163606 1115.000000,1.163606 C1115.000000,141.865219 1115.000000,282.682617 1115.000000,424.000000 M484.426208,1090.002075 C632.998962,1124.306885 772.371277,1101.637695 904.348511,1022.743591 C872.432251,991.701294 841.530396,961.645630 810.379578,931.347839 C617.187256,1033.219482 382.906677,969.784424 264.378143,792.798096 C147.716110,618.599060 176.044479,388.081238 332.329437,246.544907 C410.651978,175.613602 503.610779,138.815460 609.270264,138.152374 C735.044617,137.363007 840.603516,185.391541 927.015015,276.791412 C958.073975,248.750031 989.054199,220.779724 1020.386902,192.491196 C1011.985535,183.908844 1004.117615,175.540619 995.901062,167.530045 C928.690796,102.004471 849.804626,56.539310 759.361938,31.671019 C683.013428,10.678087 605.538452,6.428242 527.234131,19.012939 C457.849457,30.164106 392.917664,53.592087 332.744690,89.868523 C268.591278,128.544632 214.469345,178.237198 170.549408,238.998489 C130.601151,294.265106 102.006584,354.905762 84.912201,420.866577 C70.006248,478.383087 64.525131,536.806641 68.684494,596.198242 C72.222466,646.716858 81.986481,695.890930 99.251610,743.428528 C131.132645,831.209473 181.851440,906.377625 251.892960,968.329773 C319.162933,1027.830444 396.506073,1068.159180 484.426208,1090.002075 M971.126892,816.372986 C994.426880,839.447998 1017.726868,862.523010 1041.026855,885.598022 C1041.543579,885.371338 1042.060181,885.144714 1042.576904,884.918030 C1042.576904,756.053040 1042.576904,627.188049 1042.576904,497.894135 C891.871216,497.140472 740.869019,496.385315 589.411011,495.627869 C589.411011,538.014893 589.411011,579.593018 589.411011,621.710388 C698.520752,622.263489 807.569214,622.816284 917.113159,623.371582 C917.113159,625.537598 917.116394,627.161011 917.112732,628.784424 C917.015808,671.768982 916.959167,714.753784 916.743164,757.737793 C916.725830,761.194336 917.706238,763.623962 920.150696,766.018677 C937.043457,782.567993 953.815796,799.240173 971.126892,816.372986 z" style="fill: rgb(253, 253, 253); fill-opacity: 0;"/>
  <path opacity="1.000000" stroke="none" d=" M484.020203,1089.925781 C396.506073,1068.159180 319.162933,1027.830444 251.892960,968.329773 C181.851440,906.377625 131.132645,831.209473 99.251610,743.428528 C81.986481,695.890930 72.222466,646.716858 68.684494,596.198242 C64.525131,536.806641 70.006248,478.383087 84.912201,420.866577 C102.006584,354.905762 130.601151,294.265106 170.549408,238.998489 C214.469345,178.237198 268.591278,128.544632 332.744690,89.868523 C392.917664,53.592087 457.849457,30.164106 527.234131,19.012939 C605.538452,6.428242 683.013428,10.678087 759.361938,31.671019 C849.804626,56.539310 928.690796,102.004471 995.901062,167.530045 C1004.117615,175.540619 1011.985535,183.908844 1020.386902,192.491196 C989.054199,220.779724 958.073975,248.750031 927.015015,276.791412 C840.603516,185.391541 735.044617,137.363007 609.270264,138.152374 C503.610779,138.815460 410.651978,175.613602 332.329437,246.544907 C176.044479,388.081238 147.716110,618.599060 264.378143,792.798096 C382.906677,969.784424 617.187256,1033.219482 810.379578,931.347839 C841.530396,961.645630 872.432251,991.701294 904.348511,1022.743591 C772.371277,1101.637695 632.998962,1124.306885 484.020203,1089.925781 z" style="fill: rgb(255, 255, 255);"/>
  <path opacity="1.000000" stroke="none" d=" M970.876831,816.122925 C953.815796,799.240173 937.043457,782.567993 920.150696,766.018677 C917.706238,763.623962 916.725830,761.194336 916.743164,757.737793 C916.959167,714.753784 917.015808,671.768982 917.112732,628.784424 C917.116394,627.161011 917.113159,625.537598 917.113159,623.371582 C807.569214,622.816284 698.520752,622.263489 589.411011,621.710388 C589.411011,579.593018 589.411011,538.014893 589.411011,495.627869 C740.869019,496.385315 891.871216,497.140472 1042.576904,497.894135 C1042.576904,627.188049 1042.576904,756.053040 1042.576904,884.918030 C1042.060181,885.144714 1041.543579,885.371338 1041.026855,885.598022 C1017.726868,862.523010 994.426880,839.447998 970.876831,816.122925 z" style="fill: rgb(255, 255, 255);"/>
</svg>