<?xml version="1.0" encoding="utf-8"?>
<svg version="1.1" id="Layer_1" x="0px" y="0px" width="100%" viewBox="0 0 1024 496" enable-background="new 0 0 1024 496" xmlns="http://www.w3.org/2000/svg">
  <path opacity="1.000000" stroke="none" d=" M877.893494,280.892487 C869.536499,287.238983 865.434998,296.025635 864.329651,305.466248 C863.332458,313.982941 859.670898,323.010315 865.402527,331.508087 C867.588440,334.748962 866.668579,338.679871 866.194519,342.258636 C865.675232,346.178436 860.306885,348.929871 856.494385,347.714020 C850.782898,345.892578 846.147095,339.990326 846.125244,333.396637 C846.105957,327.590973 844.106995,322.016418 844.479309,316.101105 C844.816040,310.750885 846.022156,305.761871 847.390808,300.593994 C852.155151,282.605347 863.518738,269.871063 878.006348,259.191437 C885.286438,253.824860 893.089600,249.324646 901.338257,245.881866 C908.262024,242.992035 915.735413,241.354935 923.043945,239.467010 C932.425232,237.043732 942.015137,237.191513 951.625732,237.576187 C963.891418,238.067108 973.582642,244.168396 982.486694,251.722046 C985.510437,254.287247 988.328796,257.154694 991.436829,259.660797 C995.827271,263.201019 997.597412,267.894165 998.647827,273.346283 C999.517212,277.858459 1001.103699,282.226166 1000.986206,286.914612 C1000.758972,295.979126 1000.242554,304.782471 997.511963,313.766815 C995.142212,321.564301 990.481201,327.869232 987.310913,335.038727 C984.227722,342.011444 978.377380,347.685394 973.344971,353.646698 C963.903442,364.830811 952.635742,374.150543 941.957581,383.992920 C933.894958,391.424591 924.586182,397.622681 914.789429,403.033875 C898.325928,412.127441 881.853271,421.031860 863.456055,425.602783 C853.360596,428.111084 843.326294,430.921997 832.766113,431.062378 C820.169861,431.229858 807.668396,429.503143 796.225830,424.840607 C784.069885,419.887360 771.918457,413.979370 764.405945,401.956879 C761.613647,397.488342 757.122803,394.345245 754.379028,389.625854 C751.296814,384.324402 749.040588,379.283020 752.334534,372.847595 C748.981140,372.666138 747.177368,374.598999 745.100891,376.077698 C737.757385,381.306976 730.056213,385.559601 721.022583,387.553253 C712.570618,389.418549 707.103271,383.885834 704.867432,377.163055 C701.716858,367.690216 704.644653,358.954376 710.431946,351.055481 C714.540527,345.447815 718.498108,339.729492 722.759033,333.728271 C719.581482,333.298584 716.701233,332.762604 713.797852,332.562378 C711.430725,332.399170 709.824707,333.862793 708.469604,335.717804 C700.470886,346.667358 690.338684,355.333313 679.821838,363.821075 C668.424866,373.019165 655.549072,379.310425 642.554382,385.487488 C637.018433,388.119019 630.878357,389.426849 624.632385,389.423340 C614.752136,389.417786 611.016418,386.947418 604.775696,376.410248 C600.386658,377.236847 596.381226,379.391968 592.679016,381.723450 C582.921265,387.868469 572.056091,390.054413 560.925293,390.980225 C554.193848,391.540100 547.897766,389.604218 544.728638,382.742065 C542.506470,377.930450 540.104248,378.048981 536.050293,380.893799 C528.833801,385.957825 520.674255,389.205231 511.948975,390.654114 C507.143829,391.452057 502.767700,389.311768 498.706665,387.139740 C496.041565,385.714294 494.033844,385.630493 491.331696,386.936066 C486.420502,389.308960 481.431030,391.832642 476.186371,393.127167 C468.823456,394.944611 461.011749,394.848846 455.188324,389.265198 C449.965637,384.257599 449.812683,377.386993 451.532074,370.566345 C454.618073,358.324554 462.378571,348.570831 469.215088,338.449554 C475.142426,329.674194 482.488861,321.875122 486.545746,311.846344 C487.415558,309.696167 488.429657,307.743103 486.531189,305.940735 C484.790100,304.287811 482.586029,304.480988 480.447113,305.431244 C475.121857,307.797119 469.855927,310.263824 465.632660,314.431000 C457.528168,322.427826 448.551697,329.316986 441.910706,339.075165 C437.063568,346.197540 431.489288,353.109467 426.309753,360.138336 C420.836609,367.565613 416.256805,375.656433 411.394531,383.523987 C410.509003,384.956848 409.785919,386.484772 408.322510,387.361145 C404.692902,389.534698 400.855011,390.678375 397.193909,387.672546 C393.048889,384.269318 394.575623,379.791534 396.439087,376.244202 C399.753845,369.934174 403.547363,363.795959 407.800293,358.076385 C414.939087,348.475830 421.104279,338.266510 427.507111,328.202332 C429.666046,324.808899 433.099365,322.018616 433.113403,317.383331 C428.157715,319.781372 424.117798,323.037567 421.077362,327.545532 C418.967102,330.674438 415.280701,331.995483 412.621185,334.460327 C401.142761,345.098541 390.990356,356.821472 381.679443,369.495239 C375.704315,377.628510 367.811462,384.792755 358.016052,388.693604 C354.386627,390.138947 350.184570,389.924377 346.199982,389.209991 C343.294769,388.689056 342.368988,386.495789 341.419434,384.048920 C339.244110,378.443451 338.219208,378.023438 333.726410,381.607819 C326.941254,387.021118 319.023865,389.055450 310.713959,389.880737 C303.138611,390.633087 291.904999,380.320160 290.878571,372.044830 C290.078888,365.597626 289.458710,365.420868 284.110352,369.111084 C274.016235,376.075714 264.489899,384.467682 252.481018,387.636414 C243.039780,390.127625 237.375702,397.967957 228.704895,401.480713 C221.290497,404.484467 211.687332,404.884399 204.801971,400.540222 C198.759567,396.727936 193.280136,392.186005 187.385117,388.203888 C182.145081,384.664276 182.109360,378.513794 180.186218,373.178894 C175.749466,372.860779 172.592773,375.659637 168.970337,377.024628 C163.697021,379.011719 158.429276,380.963165 152.952438,382.390839 C149.247131,383.356720 145.468399,383.808228 143.859146,379.965088 C142.303040,376.248901 144.936798,373.042542 148.218307,371.401947 C152.055191,369.483673 156.333450,368.470917 160.293961,366.771118 C164.680176,364.888550 168.930435,362.687317 173.226303,360.596863 C175.254089,359.610107 176.098785,357.881317 176.002350,355.694641 C175.663239,348.005920 179.174423,341.565521 182.643356,335.113983 C184.820953,331.064026 188.601959,328.840851 192.567596,327.096191 C194.944916,326.050262 197.499313,326.474731 199.331100,328.769440 C201.041763,330.912415 200.713150,332.859833 199.306732,335.145477 C196.587982,339.563812 194.191620,344.180481 191.364700,349.247070 C195.192551,349.560547 197.253738,347.674194 199.363235,346.331879 C210.957535,338.954224 222.613297,331.507874 232.967194,322.538330 C242.178604,314.558533 252.666092,308.151154 260.759308,298.656525 C265.107788,293.555054 269.573792,288.402618 274.194092,283.459595 C277.618683,279.795807 282.176880,278.060181 285.601105,280.073883 C289.537598,282.388824 291.998535,285.183929 290.561920,290.660645 C287.383331,302.778137 284.574677,314.945221 280.423859,326.832916 C277.046661,336.505127 272.586487,345.899719 271.045380,356.179962 C270.586853,359.238647 267.287018,360.817749 266.809998,364.431854 C271.531769,363.442078 275.187775,360.809357 278.687805,358.326874 C284.507355,354.199158 289.909302,349.480133 295.455719,344.971466 C297.016388,343.702820 298.186218,342.118439 299.154785,340.314209 C305.745422,328.037140 312.781158,316.000031 324.029907,307.328766 C328.258728,304.068909 331.637848,299.787018 335.920319,296.900146 C350.784393,286.880096 362.901886,282.712372 378.025543,296.399841 C381.006439,299.097656 381.398834,303.222717 384.100769,305.865723 C386.083038,306.092377 387.043610,304.867310 387.618835,303.477081 C389.649200,298.570160 394.535278,296.047791 397.254395,291.555298 C399.343079,288.104431 403.444702,289.557861 406.786865,291.100800 C410.132141,292.645172 411.050995,295.276886 409.960876,298.494720 C409.281403,300.500519 408.216614,302.549286 406.800446,304.099976 C402.268402,309.062500 399.127106,314.782745 395.962311,320.673004 C393.617523,325.037140 389.295807,328.342377 385.839233,332.105072 C381.341095,337.001495 376.893311,341.946503 372.304871,346.757111 C365.776855,353.601227 362.858002,362.580078 356.971252,371.526062 C366.311554,366.396210 371.506958,359.013275 377.273529,352.384949 C384.901031,343.617645 392.425537,334.870331 400.760437,326.674774 C406.332367,321.195984 412.543304,316.142487 417.491455,309.806396 C422.532806,303.350922 429.869446,299.352875 437.791870,296.893372 C441.368164,295.783081 444.345001,297.557220 446.945923,299.716553 C448.837006,301.286499 450.389740,303.263977 452.165802,305.136139 C461.504120,298.068298 471.346985,291.766937 482.659271,288.345001 C494.087463,284.887939 506.853394,292.740387 504.034973,308.308350 C501.828430,320.496643 494.234833,329.510834 488.283722,339.556793 C485.643311,344.014038 482.454865,348.075562 478.479645,351.413239 C476.088562,353.420868 476.190643,356.499023 474.770599,358.921265 C472.612854,362.601776 470.447449,366.342133 468.891113,370.295563 C466.637482,376.020142 469.034821,378.731201 475.004211,377.496735 C477.595062,376.960907 480.139130,376.055023 482.596405,375.052368 C485.890411,373.708313 487.669434,371.528076 487.993164,367.536499 C488.979828,355.370239 495.022614,345.167999 501.930359,335.536926 C508.300354,326.655640 515.081360,318.148651 523.235107,310.671021 C532.999146,301.716644 544.451416,297.065155 557.251465,296.269562 C564.882751,295.795227 572.291687,298.411530 578.392029,303.960541 C581.753357,299.798920 584.978699,296.035492 587.950989,292.081879 C596.335754,280.928741 606.147339,270.872650 613.321228,258.775574 C614.984192,255.971466 617.206421,253.240540 621.332214,253.994431 C625.039246,254.671814 629.060608,255.504410 630.309570,259.327881 C631.703125,263.593933 628.220459,266.970520 625.857788,269.864685 C613.784729,284.653351 601.406799,299.241943 590.481201,314.870422 C584.839661,322.940338 579.696594,331.509827 574.787231,340.159424 C571.419556,346.092773 566.086182,350.884308 563.524170,357.439056 C562.438538,360.216431 561.028809,362.946198 560.468689,365.833832 C559.193237,372.409546 564.171631,376.644165 570.435120,374.070557 C580.676331,369.862457 590.587158,364.891571 600.299622,359.562073 C603.089172,358.031433 604.068420,355.371185 604.968994,352.303284 C608.323914,340.874268 610.242126,328.928558 616.119141,318.353455 C623.372437,305.301758 631.750122,293.142029 645.148254,285.542755 C652.793701,281.206329 660.868408,279.622894 669.409973,282.911255 C673.258118,284.392731 675.341125,287.777008 677.403564,290.906494 C683.234009,299.753265 682.366028,313.322815 675.398560,321.270813 C665.324402,332.762756 654.550720,343.672974 642.009338,352.401276 C635.932129,356.630798 629.244690,360.808014 621.238403,361.079590 C619.523499,369.575714 626.086365,372.548645 633.902161,370.318207 C645.596741,366.980896 655.760620,361.107178 665.247070,353.504303 C669.571716,350.038361 674.617371,347.381256 678.861145,343.636597 C685.076904,338.151886 691.449707,332.845001 697.769775,327.479004 C700.616699,325.061829 701.965332,322.094238 701.853333,318.284668 C701.516602,306.834076 707.450134,297.761536 713.034180,288.435547 C718.090393,279.991119 726.008362,275.087860 734.138794,270.726257 C738.971436,268.133789 744.771790,266.773010 750.586060,267.935425 C757.598083,269.337311 763.046448,277.405334 761.016907,284.307343 C758.563965,292.649750 754.436035,300.203186 747.870178,306.186279 C746.084656,307.813324 744.346497,309.492371 743.030151,311.630585 C750.343933,307.707428 757.345337,303.601349 762.750427,297.075806 C767.086792,291.840515 772.192993,287.307129 779.845276,288.062775 C783.659058,288.439392 784.644714,291.423279 784.997375,294.453888 C785.623291,299.832550 782.689758,303.710388 778.750366,306.809052 C771.704468,312.351318 764.262268,317.416779 757.466248,323.242188 C750.442078,329.263123 744.250977,336.217560 737.668213,342.725311 C731.604797,348.719727 727.557739,355.816925 723.544067,363.091614 C722.254700,365.428528 721.777649,367.674591 723.049561,370.726593 C728.404968,369.578308 732.588989,366.232971 736.833984,363.258270 C746.073547,356.783661 754.646790,349.213684 764.373047,343.623627 C772.240295,339.101959 777.901611,332.508942 784.475464,326.785156 C791.489258,320.678192 798.549744,314.601013 805.566833,308.509552 C813.663940,301.480530 821.013672,293.915344 827.761719,285.656128 C830.533508,282.263580 837.455566,281.598480 840.816711,284.177948 C844.139709,286.728180 845.190796,292.733948 842.899780,296.602661 C841.632202,298.743103 840.128845,300.743591 838.852783,302.879425 C830.995422,316.030426 826.149231,330.391724 821.076294,344.777588 C816.246887,358.473145 814.358521,373.184265 806.769958,385.958862 C803.715637,391.100616 800.174377,395.482117 794.978577,398.464325 C793.673218,399.213531 792.425110,400.042450 791.714233,401.523407 C791.958801,403.904755 793.902100,404.710358 795.641174,405.570770 C806.050781,410.721039 816.881287,412.802826 828.680786,413.171600 C846.184082,413.718536 862.073730,408.661530 877.842407,402.638672 C884.895996,399.944580 891.020935,394.820221 898.073547,392.121948 C906.977234,388.715485 913.896423,382.361542 922.056641,377.944519 C928.420715,374.499725 933.296326,369.175140 938.558960,364.440308 C941.230652,362.036591 943.807861,359.325470 946.618713,357.106232 C964.293335,343.151642 977.186218,325.730560 983.546204,304.163513 C987.389038,291.132141 986.455750,277.623810 977.346008,266.793915 C967.250610,254.792130 954.375977,248.527985 937.779541,251.388687 C926.049866,253.410507 914.667053,256.048706 904.051697,261.452118 C894.356323,266.387207 885.500732,272.519196 877.893494,280.892487 M250.254471,361.772064 C260.435577,346.802307 263.880096,329.446808 268.818024,311.373688 C265.286163,313.121552 263.162933,314.493042 261.147827,316.282806 C248.897018,327.163513 236.098389,337.340729 222.187103,346.064056 C214.720032,350.746368 207.247070,355.428406 199.934418,360.345001 C194.061111,364.293915 193.462662,368.242462 198.426819,373.005280 C202.582703,376.992676 207.015564,380.834869 212.697510,382.823761 C216.176575,384.041504 219.414185,385.196259 223.285919,384.148895 C235.466858,380.853790 243.465698,372.645599 250.254471,361.772064 M348.336639,307.799805 C336.544708,313.793060 329.934143,324.799530 321.845673,334.518677 C315.758148,341.833466 313.056824,350.782623 308.176880,358.637909 C306.254272,361.732727 305.618286,366.692230 308.944244,369.795074 C312.278473,372.905579 316.411011,374.495239 321.285217,372.253876 C333.489624,366.641724 342.727661,357.272461 351.985260,348.026154 C355.429779,344.585815 357.580963,339.540741 359.055878,335.175079 C361.050293,329.271790 362.933990,323.363739 365.392029,317.592102 C367.715820,312.135712 362.982208,304.199829 357.804199,304.574127 C354.737335,304.795807 351.472321,305.125275 348.336639,307.799805 M548.986572,346.490417 C550.148010,344.277344 551.803040,342.353241 553.046326,340.245239 C557.115601,333.346100 563.288086,327.843109 565.965088,319.993500 C567.546936,315.355042 567.285278,314.560150 562.368042,313.274384 C554.418335,311.195648 547.825562,315.024109 541.046143,317.912415 C538.805908,318.866821 536.553955,320.063416 534.827698,321.992889 C529.664124,327.764374 524.138306,333.176483 519.412109,339.382141 C513.419678,347.250366 507.913849,355.209534 505.847687,365.113312 C504.485382,371.642914 508.454224,376.022614 514.893616,374.656525 C516.812012,374.249542 518.708923,373.414673 520.426941,372.442383 C531.677673,366.075073 541.530457,358.120850 548.986572,346.490417 M784.773193,347.268707 C779.473938,353.263306 773.715576,358.736908 766.822937,362.893066 C765.483276,363.700836 763.625854,364.808105 764.740662,366.231293 C768.668152,371.245178 769.181641,378.156952 774.163086,382.544037 C778.571411,386.426270 785.885071,385.762238 788.808411,380.808563 C793.608826,372.674011 797.987427,364.341827 800.176270,355.013519 C801.228210,350.530762 802.362305,345.976379 804.230042,341.799072 C806.517517,336.682709 808.743408,331.638123 809.615662,325.211639 C801.850830,333.535614 793.431030,339.993622 784.773193,347.268707 M647.013611,328.538971 C648.362427,326.209412 650.060913,324.198761 652.288208,322.650177 C657.941895,318.719269 661.491821,313.273987 663.818054,306.879059 C664.819458,304.126221 665.030029,301.641357 662.509033,299.683441 C660.190308,297.882690 657.789795,297.843506 655.095825,299.258728 C649.008850,302.456329 644.410889,306.919891 639.858887,312.217926 C633.773010,319.301300 630.704407,327.470215 627.552063,335.721100 C626.653259,338.073456 624.370544,340.448822 625.340271,343.959259 C629.756531,343.053070 633.489441,341.079437 636.011536,337.880524 C638.970215,334.127930 642.417664,331.273743 647.013611,328.538971 M728.903259,302.430267 C733.431213,298.152161 736.479187,292.635712 742.194336,287.881744 C732.615479,290.060211 721.955444,301.369324 721.970093,308.665680 C725.503479,308.138611 726.372864,304.830383 728.903259,302.430267 z" style="fill: rgb(255, 255, 255);"/>
  <path opacity="1.000000" stroke="none" d=" M270.632385,207.619141 C261.302643,216.366638 251.114517,223.616302 242.423157,232.568314 C238.128036,236.992233 233.395523,238.178604 230.554169,235.918564 C225.513290,231.908981 225.609848,226.528778 231.066849,222.638672 C241.771576,215.007614 251.965698,206.697296 261.782715,198.022812 C266.628632,193.740845 271.398743,189.452972 276.652954,185.685104 C279.171112,183.879288 279.824585,181.263260 279.807190,178.220963 C279.762604,170.428146 278.996155,162.433655 282.838776,155.228119 C289.195953,143.307419 297.173370,132.443085 307.267426,123.506569 C316.396088,115.424721 328.746918,119.367889 331.751099,130.627899 C332.968781,135.192001 330.942474,139.165588 329.099487,142.991241 C326.646759,148.082565 323.499176,152.835709 320.960205,157.889908 C318.404907,162.976593 313.703186,166.544968 311.638000,172.014816 C315.580963,171.593185 318.896454,169.416092 322.246094,167.384277 C331.224030,161.938461 339.487976,155.514023 347.445892,148.693909 C350.503235,146.073685 353.791321,145.578690 356.995270,147.884476 C360.148193,150.153519 359.504883,153.388092 358.145905,156.481384 C357.268402,158.478699 356.228241,160.380539 354.305908,161.601410 C343.625458,168.384598 336.647888,179.061279 327.319885,187.240799 C321.092255,192.701660 316.479065,199.258530 311.880707,206.025696 C307.903961,211.878098 306.953979,218.675034 304.667084,225.019669 C303.253693,228.941010 308.375885,232.268768 312.693329,230.174896 C323.372406,224.995773 334.024567,220.329361 343.017517,211.612000 C352.147980,202.761307 359.810730,193.099716 367.092987,182.913300 C374.182373,172.996704 382.647583,164.393784 392.665222,157.497498 C402.736908,150.564011 413.529175,145.199173 426.206116,145.049591 C431.977020,144.981506 436.088959,147.867371 438.803650,152.535034 C440.258820,155.037094 442.024078,157.101913 444.218323,159.454620 C446.059845,157.792267 447.946259,156.257278 449.635132,154.529205 C452.947571,151.139984 456.612183,151.632706 460.034912,153.878082 C462.960114,155.797089 463.305908,161.585953 460.743958,164.834351 C453.849640,173.575790 446.961212,182.300049 439.103638,190.266571 C430.747467,198.738495 421.853668,206.819061 415.859619,217.370346 C414.393463,219.951233 413.467682,222.379059 414.946960,225.485825 C419.316101,224.596924 421.837830,221.468262 424.571075,218.655823 C434.169220,208.779694 442.436890,197.703430 452.480835,188.207504 C463.944916,177.368973 475.165497,166.266846 486.298370,155.086624 C491.849304,149.512070 499.061493,146.788254 505.752380,143.317612 C510.989349,140.601151 517.324768,144.325623 519.292480,150.066544 C519.827881,151.628555 520.200256,153.246460 520.917053,155.798599 C525.585693,151.486969 531.044312,149.366196 536.337280,146.907166 C547.826477,141.569519 556.161011,141.337448 564.942932,150.221802 C567.024963,152.328186 567.420166,154.688202 567.128418,157.529068 C566.056885,167.962769 561.672180,176.890366 555.447327,185.173599 C548.395386,194.557358 541.884949,204.317825 536.658691,214.876343 C535.473022,217.271820 534.554688,219.673401 534.104858,222.374924 C532.550537,231.709518 535.936157,234.805725 545.210754,233.201324 C555.453979,231.429352 564.578796,227.483932 572.696960,221.116211 C575.901733,218.602448 577.982788,215.552841 578.784668,211.234161 C580.406860,202.498169 584.132446,194.657455 589.958740,187.715881 C596.350891,180.100143 600.776123,170.939499 607.998230,163.943634 C615.231445,156.937073 621.747559,149.260406 629.084290,142.310699 C635.163879,136.551895 640.614685,130.004639 646.430908,123.875519 C654.678772,115.184036 662.919312,106.525589 672.167969,98.880371 C673.048218,98.152748 674.048096,97.469086 674.120789,95.194214 C670.358459,96.570503 666.517273,96.143265 662.907104,96.960220 C656.470886,98.416695 650.086060,98.214714 643.635864,97.546890 C642.647400,97.444542 641.553772,97.202965 640.661804,97.494316 C625.381775,102.485580 609.401917,100.513237 593.805298,102.293114 C589.569702,102.776482 585.210571,103.284294 581.199707,104.362106 C573.503479,106.430283 565.749268,105.646957 558.050049,106.194443 C544.186890,107.180229 530.265076,106.578766 516.367065,106.929253 C503.780151,107.246658 490.969818,106.672081 478.675964,103.930420 C470.306946,102.064041 461.698303,99.585228 454.157776,95.220474 C443.119904,88.831306 435.739532,79.241943 432.823456,66.655602 C432.262726,64.235481 431.933044,61.727230 431.005310,59.435581 C428.349579,52.875656 431.271881,47.092548 434.345917,41.994030 C436.139771,39.018803 440.533447,37.691872 444.630676,39.629475 C448.560669,41.487995 449.838806,44.675205 448.956146,48.690128 C445.195831,65.794891 453.012207,78.394592 469.836029,84.037811 C485.183136,89.185692 500.793762,90.245674 516.800598,90.393623 C528.460449,90.501396 539.988525,89.738487 551.560974,88.868904 C553.504761,88.722847 555.516479,89.204819 557.472168,89.540611 C566.587158,91.105774 575.189514,88.061073 583.991150,86.729095 C587.881348,86.140373 591.857971,85.655151 595.773071,85.786354 C607.323853,86.173454 618.582581,83.824448 629.977661,82.751846 C643.459106,81.482872 656.910278,79.860680 670.471802,79.090935 C679.273010,78.591393 688.335388,78.345329 697.094482,76.436340 C702.015015,75.363930 707.070496,76.040123 711.923279,76.093918 C721.172119,76.196449 730.549622,76.392288 739.709473,76.171738 C751.955444,75.876884 763.782349,78.315361 775.842590,78.863907 C785.510010,79.303619 794.220520,83.611221 801.340515,90.011070 C811.399536,99.052689 819.776306,109.720131 823.702698,122.825523 C826.220886,131.230545 827.405334,139.917053 825.833069,149.140839 C824.247314,158.443451 824.108337,167.987625 820.717346,176.978317 C814.827454,192.594193 806.536987,205.983810 792.543579,216.317734 C782.335876,223.855988 771.431641,230.005035 760.758301,236.592545 C753.047180,241.351807 744.588989,244.932266 736.244934,248.674866 C719.932617,255.991562 702.581116,258.048431 685.361511,261.074890 C674.083801,263.057037 662.762024,263.987488 651.337891,262.380035 C648.280151,261.949829 645.595886,260.826965 643.272461,258.780121 C640.726013,256.536774 640.080444,253.819016 641.113525,250.655457 C642.202454,247.320511 644.859863,247.556168 647.642395,247.615005 C654.495911,247.759888 661.178528,246.555069 667.884583,245.137970 C673.860168,243.875229 680.000732,242.995819 686.097839,242.780823 C703.402405,242.170609 719.884277,237.219742 735.915710,231.789047 C747.828552,227.753555 758.776672,220.501831 769.355652,213.237061 C776.452393,208.363586 784.177979,204.346008 789.690979,197.453186 C802.186584,181.830063 808.301514,163.932236 808.740601,144.007233 C808.893616,137.063461 806.530396,130.920044 804.240601,124.398613 C801.074890,115.382217 794.543396,110.038895 788.325317,103.882599 C781.982178,97.602493 773.692383,96.120499 765.700256,94.516479 C755.287231,92.426567 744.603210,92.013069 733.930481,92.223557 C723.487793,92.429497 713.028076,92.111259 702.599915,92.569664 C697.562683,92.791092 693.994934,97.083725 691.809753,100.732323 C686.820312,109.063423 678.498779,113.610703 672.148621,120.300926 C666.327393,126.433990 660.561401,132.623428 654.911499,138.914124 C649.616577,144.809540 643.666626,150.037964 638.361877,155.965027 C632.468811,162.549438 627.019287,169.287186 622.153015,176.659714 C619.189941,181.148727 615.189880,185.077637 611.165344,188.715775 C602.709717,196.359482 598.603088,206.164322 596.561523,216.955353 C595.390137,223.147003 599.886108,226.499786 606.109741,225.029449 C620.213379,221.697449 631.084656,213.077393 641.614868,203.825745 C649.021667,197.318192 655.230042,189.798248 660.769409,181.660324 C662.609558,178.957016 665.031677,175.518250 668.770142,177.434708 C672.646606,179.421936 673.043823,183.748444 671.914307,187.607773 C670.310547,193.087524 667.067200,197.851242 663.790955,202.448410 C653.053162,217.515488 638.742493,228.671890 622.380798,236.656113 C613.513306,240.983292 603.594971,244.562729 593.064636,240.545853 C589.912048,239.343262 586.781677,238.101013 584.481323,235.755753 C581.988770,233.214569 580.083740,233.575119 577.736938,235.673035 C575.510986,237.662918 573.157959,239.515289 570.808350,241.361404 C561.585571,248.607834 550.188538,249.348969 539.357422,251.041245 C530.376038,252.444473 521.278809,244.422668 518.413330,235.791840 C514.297913,223.396347 520.164856,213.524353 525.334961,203.299973 C531.125305,191.848877 539.970032,182.565475 547.227173,172.157547 C549.468933,168.942459 553.049072,164.723923 550.472839,161.555176 C547.839233,158.315964 542.890198,160.890259 539.538574,162.791992 C526.141113,170.393631 514.952332,180.489655 505.772919,192.948303 C502.088257,197.949310 497.685822,202.539246 493.055298,206.698669 C485.644623,213.355499 480.508545,221.563721 475.733704,230.072800 C471.820496,237.046509 467.611694,239.254974 462.838684,236.435913 C457.307068,233.168823 456.408112,226.486679 461.016724,220.500412 C470.839478,207.741272 481.298309,195.438385 490.521393,182.265808 C494.832947,176.107895 501.511139,170.981628 502.216248,162.455856 C497.104675,163.166565 493.562805,166.318848 490.372772,169.552887 C480.002350,180.066528 469.506287,190.483200 459.107391,200.943253 C450.183289,209.919815 443.442535,220.676620 434.051880,229.069260 C428.123962,234.367188 422.014038,239.659821 414.260406,242.141266 C405.655823,244.895050 400.791351,242.361206 397.246857,234.007736 C396.812836,232.984909 397.107239,231.616104 395.606567,230.763855 C392.002258,232.758545 388.321411,234.970001 384.492096,236.884552 C368.089020,245.085693 357.018494,241.750519 348.377838,225.857239 C342.318909,229.922119 336.692963,234.554535 330.432312,238.304810 C326.114990,240.890961 321.462830,242.645844 317.043884,244.935440 C310.657074,248.244675 303.824402,246.830566 297.813263,243.999207 C292.841736,241.657471 291.353760,236.232147 290.793030,230.932068 C289.868958,222.197861 292.474426,214.151917 296.007996,206.373779 C298.254211,201.429291 300.851868,196.644470 303.626434,191.122330 C294.842987,191.751709 286.591736,191.671829 281.023804,199.461594 C278.456329,203.053574 274.776306,205.377579 270.632385,207.619141 M424.701141,182.241150 C428.701019,179.173920 430.151825,174.850006 430.620697,170.078903 C431.135223,164.842896 425.627991,159.556320 420.484802,160.601456 C416.929474,161.323929 413.414520,162.414566 410.012115,163.689224 C398.472046,168.012619 391.587769,178.056091 383.431366,186.319229 C377.800934,192.023331 373.785980,199.322281 369.050476,205.909500 C365.699646,210.570618 363.820587,219.918198 365.792023,222.107376 C369.316467,226.021103 374.518311,226.124924 381.893921,222.388443 C382.627411,222.016846 383.240479,221.415024 383.950439,220.988281 C390.836517,216.849228 396.937103,211.598465 402.816620,206.267303 C410.658234,199.157043 418.049591,191.478165 424.701141,182.241150 M304.678040,147.170624 C299.305054,153.395355 295.866028,160.502441 294.143738,169.145950 C301.535278,164.622025 319.200989,140.098099 317.522461,133.403564 C311.422089,136.052505 309.778717,142.774612 304.678040,147.170624 z" style="fill: rgb(255, 255, 255);"/>
  <path opacity="1.000000" stroke="none" d=" M186.550995,274.515015 C184.454514,279.374390 181.482880,283.134766 177.685944,286.222992 C174.876404,288.508148 173.343796,291.872101 171.145355,294.585449 C162.813812,304.868347 152.742157,312.873077 142.069260,320.369385 C138.078949,323.172028 133.996185,325.584259 129.197815,326.761017 C127.299980,327.226440 125.324242,328.021515 123.787582,329.195007 C118.513313,333.222900 112.208748,334.013214 106.043449,335.327728 C103.122643,335.950500 100.527657,335.146362 97.822708,334.063232 C91.176201,331.401794 84.296455,329.917328 77.100670,329.106537 C69.369904,328.235443 61.971249,324.135803 57.371437,318.467834 C53.005703,313.088287 47.862953,308.006134 44.786610,301.323730 C41.421944,294.015106 39.501072,286.651520 39.723103,278.739807 C39.978951,269.623108 41.834446,260.696472 43.669220,251.796555 C45.369629,243.548355 50.135109,236.531860 53.224842,228.836563 C58.953194,214.569504 68.269638,202.529190 76.816750,189.939209 C86.770523,175.277191 101.247398,171.773743 117.312660,171.458755 C121.768707,171.371368 125.199730,174.192459 128.347153,177.501221 C135.512848,185.034225 136.737869,194.127228 136.352417,203.856537 C135.521576,224.827927 127.419418,241.819412 109.342781,253.340958 C106.399719,255.216782 103.237381,256.789978 99.717850,257.283234 C95.641174,257.854523 93.702713,255.346512 95.345741,251.548935 C97.233009,247.186874 100.444870,243.893097 103.975166,240.727631 C114.712196,231.100174 120.083626,218.967712 119.792938,204.494995 C119.743523,202.035324 119.286377,199.488266 118.493744,197.159912 C117.050667,192.920853 114.336807,189.626801 109.370506,190.248871 C100.913841,191.308105 92.122902,192.758331 87.197357,200.579422 C83.654854,206.204453 78.787964,210.846527 75.848251,216.817902 C70.301682,228.084503 62.487122,238.319046 59.343147,250.660294 C56.480980,261.895355 54.366646,273.360718 55.434917,285.066559 C55.835735,289.458649 58.713192,293.092224 61.140301,296.452179 C69.470474,307.983978 81.462601,313.611511 95.288597,315.302551 C98.267639,315.666901 101.116760,316.426331 104.021812,316.950806 C113.376373,318.639709 121.384155,314.445251 129.066040,310.638641 C143.915741,303.280151 155.032913,291.276520 165.274261,278.497498 C170.054398,272.532867 175.444412,267.044464 179.569016,260.570038 C183.369690,254.604111 187.008484,248.535019 190.934525,242.160721 C188.578552,242.160721 186.399628,241.744751 184.446075,242.232132 C175.584381,244.443039 169.736298,238.808395 163.454178,234.400970 C158.304642,230.788147 158.414597,224.860031 157.872025,219.528427 C157.390610,214.797897 157.610474,210.013580 159.716797,205.391785 C163.418076,197.270294 165.528290,188.474167 170.256851,180.762604 C176.215698,171.044647 184.342880,163.153702 192.127396,155.040283 C199.307724,147.556610 208.293060,142.328857 217.737686,138.144135 C228.263916,133.480209 241.667618,135.638824 247.765793,145.656021 C250.153809,149.578705 254.261948,152.361481 255.009399,157.187607 C258.088440,157.284561 259.060516,155.119171 260.472290,153.618973 C264.031036,149.837357 268.475464,148.981400 272.014740,151.436798 C275.821472,154.077728 276.099426,157.815704 273.577728,162.934875 C271.112030,167.940323 266.334076,170.653244 262.783020,174.552841 C253.289474,184.978180 242.921936,194.608444 233.446655,205.049194 C229.835190,209.028671 226.698654,213.656418 224.154968,218.576599 C221.738525,223.250610 219.199356,227.925659 214.730026,231.117569 C214.074310,231.585892 213.375381,232.272049 213.135056,233.001862 C209.704056,243.421341 202.069321,251.475723 197.287125,261.157898 C195.592041,264.589783 192.205231,267.175110 189.654663,270.200806 C188.592941,271.460297 187.698166,272.860535 186.550995,274.515015 M226.805084,189.324814 C230.435501,184.998581 234.074463,180.679489 237.693634,176.343872 C240.616791,172.842056 243.745682,169.756393 243.667725,164.388000 C243.556015,156.696365 232.656799,146.998138 225.638367,149.498047 C217.611206,152.357239 210.576340,157.444077 204.478409,163.022675 C196.004150,170.775192 188.021332,179.354187 182.947235,189.977982 C178.735809,198.795609 174.790009,207.771973 174.393753,217.746140 C174.175812,223.232437 178.432098,227.274628 183.445419,226.662811 C192.800934,225.521088 200.371719,220.466919 206.552872,214.027328 C213.739578,206.540100 219.791000,197.963150 226.805084,189.324814 z" style="fill: rgb(255, 255, 255);"/>
  <path opacity="1.000000" stroke="none" d=" M581.039551,275.982178 C570.963440,275.145508 561.433838,275.235046 551.738708,276.058075 C542.303101,276.859009 532.634644,276.140503 523.062683,275.617493 C517.674805,275.323059 512.132874,274.567322 506.692078,275.752777 C506.054352,275.891724 505.281860,276.162537 504.753510,275.940277 C497.009552,272.682831 488.762421,273.258209 480.691925,272.977417 C472.153381,272.680328 463.589722,273.185364 455.036804,273.198242 C447.229431,273.209961 439.417328,273.149597 431.617554,272.852234 C429.740692,272.780701 427.799438,272.638824 426.250031,273.395081 C423.145386,274.910431 419.960266,275.528168 416.693207,274.845764 C408.868469,273.211487 400.926971,274.529877 393.009613,273.589996 C386.630310,272.832703 379.934296,271.987671 373.291595,273.454865 C370.159027,274.146759 366.714874,273.362000 363.411926,273.361572 C354.816315,273.360413 346.105682,272.292725 337.724152,272.512146 C328.212433,272.761108 318.545197,273.067780 309.039124,273.054138 C291.672180,273.029266 274.225311,275.169647 256.910461,272.181854 C255.605698,271.956665 254.707245,272.228210 253.756302,273.067627 C247.189682,278.864136 239.976974,275.958649 233.034027,274.244873 C230.786896,273.690186 228.837799,271.816986 226.543945,270.786713 C222.587631,269.009827 222.642990,262.901703 226.910614,261.144501 C233.448929,258.452362 240.401337,255.959808 247.623978,257.845398 C250.454330,258.584320 252.847961,257.665253 255.441132,257.692230 C264.853058,257.790131 274.278564,257.908051 283.616241,259.112396 C292.119843,260.209229 300.476501,258.395691 308.924835,258.338898 C318.530701,258.274414 327.948303,256.649353 337.773041,258.322052 C346.788300,259.856934 356.289276,259.002472 365.538452,258.501740 C370.085144,258.255646 374.530762,258.732971 378.952026,259.081757 C397.909637,260.577271 416.805969,258.339355 435.739807,258.413879 C443.576263,258.444733 451.665955,256.509094 459.412811,257.448273 C464.994904,258.125031 470.710327,258.796844 476.027557,258.215546 C484.873352,257.248535 493.399170,259.374268 502.046356,259.680054 C511.887085,260.028046 521.762329,258.435516 531.676147,260.425781 C542.089294,262.516357 552.638000,260.892578 562.921082,258.371216 C570.514709,256.509308 577.973816,256.321533 585.552917,258.576752 C590.833313,260.147980 593.947144,263.992798 593.228149,268.983276 C592.531067,273.822540 588.789734,276.395996 582.994568,276.027405 C582.496460,275.995728 581.996521,275.993225 581.039551,275.982178 z" style="fill: rgb(255, 255, 255);"/>
</svg>